# xmcd
#
# Track frame offsets:
#	150
#	13285
#	26620
#	39110
#	53905
#	68810
#	82105
#	92260
#	104210
#	117010
#	128425
#	138460
#	153460
#	165685
#	182935
#	199585
#	212100
#	224940
#
# Disc length: 3177 seconds
#
# Revision: 2
# Processed by: cddbd v1.5.2PL0 Copyright (c) Steve Scherf et al.
# Submitted via: audiograbber 1.83.01
#
DISCID=050c6712
DTITLE=Various Artist - Kings Of Swing
DYEAR=1994
DGENRE=Swing
TTITLE0=Duke Ellington and The Jungle Band - Cotton Club Stomp
TTITLE1=Duke Ellington and The Jungle Band - Ring Dem Bells
TTITLE2=Cab Calloway and His Orchestra - Jumpin' Jive
TTITLE3=Cab Calloway and His Orchestra - Minnie The Moocher
TTITLE4=Jimmie Lunceford and His Orchestra - Battle Axe
TTITLE5=Jimmie Lunceford and His Orchestra - O.K. For Baby
TTITLE6=Jimmie Lunceford and His Orchestra - State And Tioga Stomp
TTITLE7=Fats Waller and His Rhythm - I've Got My Fingers Crossed
TTITLE8=Fats Waller and His Rhythm - Christopher Columbus
TTITLE9=Benny Goodman Trio - China Boy
TTITLE10=Lionel Hampton and His Orchestra - Hot Mallets
TTITLE11=Artie Shaw and His Gramercy Five - Summit Ridge Drive
TTITLE12=Artie Shaw and His Gramercy Five - Special Delivery Stomp
TTITLE13=Ella Fitzgerald and Her Orchestra - Who Ya Hunchin'
TTITLE14=Ella Fitzgerald and Her Orchestra - Goin' And Gettin' It
TTITLE15=Harry James and His Orchestra - Texas Chatter
TTITLE16=Harry James and His Orchestra - One O' Clock Jump
TTITLE17=Harry James and His Orchestra - King-Porter Stomp
EXTD=
EXTT0=
EXTT1=
EXTT2=
EXTT3=
EXTT4=
EXTT5=
EXTT6=
EXTT7=
EXTT8=
EXTT9=
EXTT10=
EXTT11=
EXTT12=
EXTT13=
EXTT14=
EXTT15=
EXTT16=
EXTT17=
PLAYORDER=
